<svg width="36" height="64" viewBox="0 0 36 64" fill="none" xmlns="http://www.w3.org/2000/svg">
<path d="M0.000146866 54.038C2.90148 51.99 5.86681 50.0273 8.89615 48.15C11.9255 46.23 15.0188 44.374 18.1761 42.582C20.3095 46.1233 22.1441 49.558 23.6801 52.886C25.2588 56.1713 26.7948 59.6273 28.2881 63.254L27.0721 63.702C25.7068 60.3313 24.2988 57.0886 22.8481 53.974C21.4401 50.8593 19.7335 47.638 17.7281 44.31C14.7841 46.0166 11.9041 47.766 9.08815 49.558C6.27215 51.3073 3.49881 53.142 0.768147 55.062L0.000146866 54.038ZM21.7601 16.8905C24.9175 18.4265 27.6268 20.7305 29.8881 23.8025C32.1921 26.8318 34.0055 30.0318 35.3281 33.4025L34.1121 33.8505C32.9601 30.8211 31.3815 27.9198 29.3761 25.1465C27.3708 22.3731 24.8961 20.1118 21.9521 18.3625C21.8668 20.4105 21.7601 22.3731 21.6321 24.2505C21.5041 26.1278 21.3335 27.9625 21.1201 29.7545C20.8641 31.5465 20.5868 33.3385 20.2881 35.1305C19.9468 36.8798 19.5201 38.6718 19.0081 40.5065C17.0455 40.2931 15.1895 39.8878 13.4401 39.2905C11.6908 38.6931 10.1548 37.8825 8.83215 36.8585C7.46681 35.7918 6.42148 34.5331 5.69615 33.0825C4.92815 31.6318 4.54415 29.9891 4.54415 28.1545C4.54415 28.0265 4.54415 27.9198 4.54415 27.8345C4.58681 25.4451 5.18415 23.4611 6.33615 21.8825C7.48815 20.2611 8.91748 19.0238 10.6241 18.1705C12.2881 17.2745 13.8668 16.7411 15.3601 16.5705C16.8535 16.3571 17.8988 16.2505 18.4961 16.2505C19.8188 16.2505 20.9068 16.4638 21.7601 16.8905ZM18.0481 39.0985C18.4748 37.3491 18.8588 35.6638 19.2001 34.0425C19.4988 32.3785 19.7548 30.7145 19.9681 29.0505C20.1388 27.3438 20.2881 25.5731 20.4161 23.7385C20.5015 21.9038 20.5868 19.9198 20.6721 17.7865C19.9041 17.6585 19.1148 17.5945 18.3041 17.5945C17.4935 17.5945 16.4481 17.7011 15.1681 17.9145C13.8455 18.0851 12.4588 18.5758 11.0081 19.3865C9.55748 20.1545 8.34148 21.2211 7.36015 22.5865C6.37881 23.9518 5.86681 25.6585 5.82415 27.7065C5.82415 27.7918 5.82415 27.8985 5.82415 28.0265C5.82415 29.7331 6.18681 31.2478 6.91215 32.5705C7.59481 33.8505 8.51215 34.9385 9.66415 35.8345C10.8161 36.7305 12.1388 37.4558 13.6321 38.0105C15.0828 38.5225 16.5548 38.8851 18.0481 39.0985ZM20.6721 22.528C20.5441 19.328 20.1388 15.872 19.4561 12.16C18.7735 8.40529 17.8135 4.45862 16.5761 0.319958L17.7281 -4.3869e-05C19.0935 4.09596 20.1175 8.10662 20.8001 12.032C21.4828 15.9573 21.8668 19.456 21.9521 22.528H20.6721ZM34.3041 9.79196C34.3041 10.2613 34.1548 10.6453 33.8561 10.944C33.5575 11.2426 33.1735 11.392 32.7041 11.392C32.2348 11.392 31.8508 11.2426 31.5521 10.944C31.2535 10.6453 31.1041 10.2613 31.1041 9.79196C31.1041 9.32262 31.2535 8.93862 31.5521 8.63996C31.8508 8.34129 32.2348 8.19196 32.7041 8.19196C33.1735 8.19196 33.5575 8.34129 33.8561 8.63996C34.1548 8.93862 34.3041 9.32262 34.3041 9.79196Z" fill="#600C30"/>
</svg>
