<svg width="46" height="69" viewBox="0 0 46 69" fill="none" xmlns="http://www.w3.org/2000/svg">
<path d="M44.7652 46.3499L38.6237 32.2838L41.1992 16.831L35.2558 19.0102L37.0388 4.94419L30.6992 12.8687L21.9822 0.585693L18.0199 13.8593L6.72745 10.8876L11.4822 23.1706L0.585937 33.2744L10.2935 39.2178L3.35953 49.5197L13.0671 50.9065L11.4822 67.7461L21.9822 60.0197L25.5482 67.7461L30.6992 57.6423L38.6237 61.4065L38.6237 49.5197L44.7652 46.3499Z" fill="#FFC510" stroke="black" stroke-width="1.17157" stroke-linejoin="round"/>
<g filter="url(#filter0_d_0_35)">
<mask id="path-2-outside-1_0_35" maskUnits="userSpaceOnUse" x="14.4048" y="16.0613" width="21" height="43" fill="black">
<rect fill="white" x="14.4048" y="16.0613" width="21" height="43"/>
<path d="M24.9023 57.3527L16.2634 58.0575L15.249 54.7152H24.9023V57.3527ZM28.597 55.815L27.0486 57.5236L25.3401 55.9859L26.8778 54.2773L28.597 55.815ZM34.5128 52.6756H26.205C25.2653 52.6756 24.5072 51.9708 24.5072 51.0738V50.038H24.3043C21.0367 50.038 19.8407 47.945 19.8407 44.3464L26.0235 42.6806C26.1516 42.6485 26.3011 42.6272 26.4506 42.6272C27.369 42.6272 27.967 43.3213 28.1912 44.0795C28.4582 44.9871 28.5009 45.9909 28.5009 47.4218C28.5009 48.2227 28.5009 49.1197 28.4795 49.9206L33.4343 49.1624L34.5128 52.6756ZM24.5392 47.2403C24.5392 46.952 24.5285 46.3326 24.4965 46.0656L23.45 46.354C23.5354 46.5996 23.717 47.0801 23.8024 47.1976L24.5392 47.2403ZM27.8602 39.6693C27.3369 40.8012 26.2584 41.0254 25.2226 40.7585L19.4883 39.2421C19.6058 36.4978 20.4814 33.8816 24.048 33.8816H24.2722V32.7283H28.4048V33.8816C29.7182 33.8816 30.2628 34.0631 30.9356 34.8106C31.5229 35.4513 32.516 36.989 33.1887 38.0995L30.0493 40.1284C29.6755 39.2421 28.7785 37.3734 28.2126 36.4551C28.2126 38.3345 28.1271 39.082 27.8602 39.6693ZM23.151 37.5656L24.1868 37.8326C24.2402 37.4588 24.2616 36.9142 24.2616 36.4657L23.6102 36.5085C23.4393 36.7327 23.2685 37.2132 23.151 37.5656ZM28.4048 32.7283C28.4048 33.369 27.369 33.668 26.3439 33.668C25.308 33.668 24.2722 33.3476 24.2722 32.7283V32.2584C24.2722 31.8954 24.2722 31.7886 24.1975 31.5003C23.4393 30.9557 23.1083 30.7635 22.254 30.1441C21.4318 29.5568 20.4707 28.7559 20.1824 27.4852L24.2722 23.374V22.7653H28.4048V23.2031C28.4048 23.8332 28.266 24.2603 27.668 24.901L28.7251 25.8194C29.2697 26.2892 29.6328 26.6309 29.6328 27.3571C29.6328 28.1686 29.0882 29.1403 27.8602 30.4751C28.2766 31.0197 28.4048 31.6498 28.4048 32.1623V32.7283ZM24.1548 27.7522L25.009 28.4249C25.2547 28.0405 25.4148 27.624 25.4575 27.3357L25.0624 26.7484L24.1548 27.7522ZM26.3439 23.6944C25.308 23.6944 24.2722 23.374 24.2722 22.7547V21.9751C24.2722 21.5266 24.2722 20.9927 24.2082 20.6724L20.5241 21.2703L19.4456 17.7571H25.1799C27.4864 17.7571 28.4048 19.2842 28.4048 21.8683V22.7547C28.4048 23.3847 27.369 23.6944 26.3439 23.6944ZM17.3953 19.9783L15.8897 18.6221L17.2458 17.1164L18.7408 18.4726L17.3953 19.9783ZM18.9757 21.4305L17.6196 22.9362L16.1246 21.58L17.4701 20.085L18.9757 21.4305Z"/>
</mask>
<path d="M24.9023 57.3527L16.2634 58.0575L15.249 54.7152H24.9023V57.3527ZM28.597 55.815L27.0486 57.5236L25.3401 55.9859L26.8778 54.2773L28.597 55.815ZM34.5128 52.6756H26.205C25.2653 52.6756 24.5072 51.9708 24.5072 51.0738V50.038H24.3043C21.0367 50.038 19.8407 47.945 19.8407 44.3464L26.0235 42.6806C26.1516 42.6485 26.3011 42.6272 26.4506 42.6272C27.369 42.6272 27.967 43.3213 28.1912 44.0795C28.4582 44.9871 28.5009 45.9909 28.5009 47.4218C28.5009 48.2227 28.5009 49.1197 28.4795 49.9206L33.4343 49.1624L34.5128 52.6756ZM24.5392 47.2403C24.5392 46.952 24.5285 46.3326 24.4965 46.0656L23.45 46.354C23.5354 46.5996 23.717 47.0801 23.8024 47.1976L24.5392 47.2403ZM27.8602 39.6693C27.3369 40.8012 26.2584 41.0254 25.2226 40.7585L19.4883 39.2421C19.6058 36.4978 20.4814 33.8816 24.048 33.8816H24.2722V32.7283H28.4048V33.8816C29.7182 33.8816 30.2628 34.0631 30.9356 34.8106C31.5229 35.4513 32.516 36.989 33.1887 38.0995L30.0493 40.1284C29.6755 39.2421 28.7785 37.3734 28.2126 36.4551C28.2126 38.3345 28.1271 39.082 27.8602 39.6693ZM23.151 37.5656L24.1868 37.8326C24.2402 37.4588 24.2616 36.9142 24.2616 36.4657L23.6102 36.5085C23.4393 36.7327 23.2685 37.2132 23.151 37.5656ZM28.4048 32.7283C28.4048 33.369 27.369 33.668 26.3439 33.668C25.308 33.668 24.2722 33.3476 24.2722 32.7283V32.2584C24.2722 31.8954 24.2722 31.7886 24.1975 31.5003C23.4393 30.9557 23.1083 30.7635 22.254 30.1441C21.4318 29.5568 20.4707 28.7559 20.1824 27.4852L24.2722 23.374V22.7653H28.4048V23.2031C28.4048 23.8332 28.266 24.2603 27.668 24.901L28.7251 25.8194C29.2697 26.2892 29.6328 26.6309 29.6328 27.3571C29.6328 28.1686 29.0882 29.1403 27.8602 30.4751C28.2766 31.0197 28.4048 31.6498 28.4048 32.1623V32.7283ZM24.1548 27.7522L25.009 28.4249C25.2547 28.0405 25.4148 27.624 25.4575 27.3357L25.0624 26.7484L24.1548 27.7522ZM26.3439 23.6944C25.308 23.6944 24.2722 23.374 24.2722 22.7547V21.9751C24.2722 21.5266 24.2722 20.9927 24.2082 20.6724L20.5241 21.2703L19.4456 17.7571H25.1799C27.4864 17.7571 28.4048 19.2842 28.4048 21.8683V22.7547C28.4048 23.3847 27.369 23.6944 26.3439 23.6944ZM17.3953 19.9783L15.8897 18.6221L17.2458 17.1164L18.7408 18.4726L17.3953 19.9783ZM18.9757 21.4305L17.6196 22.9362L16.1246 21.58L17.4701 20.085L18.9757 21.4305Z" fill="#ED1D24"/>
<path d="M24.9023 57.3527L24.934 57.742L25.2928 57.7127V57.3527H24.9023ZM16.2634 58.0575L15.8897 58.1709L15.9812 58.4724L16.2952 58.4467L16.2634 58.0575ZM15.249 54.7152V54.3246H14.7223L14.8753 54.8286L15.249 54.7152ZM24.9023 54.7152H25.2928V54.3246H24.9023V54.7152ZM28.597 55.815L28.8864 56.0773L29.1503 55.786L28.8573 55.524L28.597 55.815ZM27.0486 57.5236L26.7874 57.8139L27.0767 58.0742L27.338 57.7858L27.0486 57.5236ZM25.3401 55.9859L25.0498 55.7246L24.7886 56.0149L25.0788 56.2762L25.3401 55.9859ZM26.8778 54.2773L27.1381 53.9863L26.8479 53.7267L26.5875 54.0161L26.8778 54.2773ZM24.9023 57.3527L24.8705 56.9635L16.2317 57.6683L16.2634 58.0575L16.2952 58.4467L24.934 57.742L24.9023 57.3527ZM16.2634 58.0575L16.6371 57.9441L15.6227 54.6017L15.249 54.7152L14.8753 54.8286L15.8897 58.1709L16.2634 58.0575ZM15.249 54.7152V55.1057H24.9023V54.7152V54.3246H15.249V54.7152ZM24.9023 54.7152H24.5117V57.3527H24.9023H25.2928V54.7152H24.9023ZM28.597 55.815L28.3076 55.5528L26.7593 57.2613L27.0486 57.5236L27.338 57.7858L28.8864 56.0773L28.597 55.815ZM27.0486 57.5236L27.3099 57.2333L25.6013 55.6956L25.3401 55.9859L25.0788 56.2762L26.7874 57.8139L27.0486 57.5236ZM25.3401 55.9859L25.6304 56.2471L27.168 54.5386L26.8778 54.2773L26.5875 54.0161L25.0498 55.7246L25.3401 55.9859ZM26.8778 54.2773L26.6174 54.5684L28.3366 56.1061L28.597 55.815L28.8573 55.524L27.1381 53.9863L26.8778 54.2773ZM34.5128 52.6756V53.0661H35.0412L34.8862 52.561L34.5128 52.6756ZM24.5072 50.038H24.8977V49.6475H24.5072V50.038ZM19.8407 44.3464L19.7391 43.9693L19.4502 44.0472V44.3464H19.8407ZM26.0235 42.6806L25.9288 42.3017L25.9219 42.3035L26.0235 42.6806ZM28.1912 44.0795L28.5659 43.9693L28.5657 43.9687L28.1912 44.0795ZM28.4795 49.9206L28.0891 49.9101L28.0767 50.3773L28.5386 50.3066L28.4795 49.9206ZM33.4343 49.1624L33.8076 49.0478L33.7087 48.7253L33.3753 48.7764L33.4343 49.1624ZM24.5392 47.2403L24.5166 47.6301L24.9297 47.6541V47.2403H24.5392ZM24.4965 46.0656L24.8842 46.0191L24.8302 45.5686L24.3928 45.6891L24.4965 46.0656ZM23.45 46.354L23.3463 45.9775L22.9441 46.0883L23.0811 46.4823L23.45 46.354ZM23.8024 47.1976L23.4866 47.4272L23.5953 47.5767L23.7798 47.5874L23.8024 47.1976ZM34.5128 52.6756V52.2851H26.205V52.6756V53.0661H34.5128V52.6756ZM26.205 52.6756V52.2851C25.4575 52.2851 24.8977 51.7324 24.8977 51.0738H24.5072H24.1166C24.1166 52.2092 25.0731 53.0661 26.205 53.0661V52.6756ZM24.5072 51.0738H24.8977V50.038H24.5072H24.1166V51.0738H24.5072ZM24.5072 50.038V49.6475H24.3043V50.038V50.4285H24.5072V50.038ZM24.3043 50.038V49.6475C22.7614 49.6475 21.779 49.1594 21.163 48.3121C20.5281 47.4387 20.2312 46.1165 20.2312 44.3464H19.8407H19.4502C19.4502 46.175 19.7513 47.6985 20.5313 48.7713C21.3301 49.8702 22.5795 50.4285 24.3043 50.4285V50.038ZM19.8407 44.3464L19.9423 44.7235L26.1251 43.0577L26.0235 42.6806L25.9219 42.3035L19.7391 43.9693L19.8407 44.3464ZM26.0235 42.6806L26.1182 43.0594C26.2187 43.0343 26.3363 43.0177 26.4506 43.0177V42.6272V42.2367C26.2659 42.2367 26.0845 42.2628 25.9288 42.3017L26.0235 42.6806ZM26.4506 42.6272V43.0177C27.1349 43.0177 27.6217 43.5309 27.8167 44.1902L28.1912 44.0795L28.5657 43.9687C28.3122 43.1117 27.6031 42.2367 26.4506 42.2367V42.6272ZM28.1912 44.0795L27.8166 44.1896C28.0658 45.037 28.1104 45.9885 28.1104 47.4218H28.5009H28.8914C28.8914 45.9933 28.8506 44.9373 28.5659 43.9693L28.1912 44.0795ZM28.5009 47.4218H28.1104C28.1104 48.2238 28.1103 49.1154 28.0891 49.9101L28.4795 49.9206L28.8699 49.931C28.8914 49.1239 28.8914 48.2215 28.8914 47.4218H28.5009ZM28.4795 49.9206L28.5386 50.3066L33.4934 49.5484L33.4343 49.1624L33.3753 48.7764L28.4205 49.5345L28.4795 49.9206ZM33.4343 49.1624L33.061 49.277L34.1395 52.7902L34.5128 52.6756L34.8862 52.561L33.8076 49.0478L33.4343 49.1624ZM24.5392 47.2403H24.9297C24.9297 46.9559 24.9195 46.3131 24.8842 46.0191L24.4965 46.0656L24.1087 46.1122C24.1375 46.3521 24.1487 46.948 24.1487 47.2403H24.5392ZM24.4965 46.0656L24.3928 45.6891L23.3463 45.9775L23.45 46.354L23.5537 46.7305L24.6002 46.4421L24.4965 46.0656ZM23.45 46.354L23.0811 46.4823C23.1256 46.61 23.1945 46.7975 23.264 46.9699C23.2987 47.0559 23.3348 47.1414 23.3691 47.2152C23.3994 47.2805 23.4405 47.3639 23.4866 47.4272L23.8024 47.1976L24.1182 46.9679C24.1216 46.9725 24.1079 46.9518 24.0775 46.8863C24.051 46.8293 24.0204 46.7573 23.9884 46.6778C23.9244 46.5191 23.8598 46.3435 23.8188 46.2257L23.45 46.354ZM23.8024 47.1976L23.7798 47.5874L24.5166 47.6301L24.5392 47.2403L24.5618 46.8504L23.825 46.8077L23.8024 47.1976ZM27.8602 39.6693L28.2147 39.8331L28.2157 39.8309L27.8602 39.6693ZM25.2226 40.7585L25.1228 41.136L25.1252 41.1366L25.2226 40.7585ZM19.4883 39.2421L19.0981 39.2254L19.0847 39.5394L19.3885 39.6197L19.4883 39.2421ZM24.2722 33.8816V34.2721H24.6628V33.8816H24.2722ZM24.2722 32.7283V32.3378H23.8817V32.7283H24.2722ZM28.4048 32.7283H28.7953V32.3378H28.4048V32.7283ZM28.4048 33.8816H28.0143V34.2721H28.4048V33.8816ZM30.9356 34.8106L30.6453 35.0718L30.6477 35.0745L30.9356 34.8106ZM33.1887 38.0995L33.4007 38.4275L33.7193 38.2216L33.5227 37.8972L33.1887 38.0995ZM30.0493 40.1284L29.6894 40.2802L29.8703 40.7091L30.2612 40.4564L30.0493 40.1284ZM28.2126 36.4551L28.545 36.2502L27.822 35.077V36.4551H28.2126ZM23.151 37.5656L22.7805 37.4421L22.6481 37.8393L23.0535 37.9438L23.151 37.5656ZM24.1868 37.8326L24.0893 38.2107L24.5117 38.3196L24.5734 37.8878L24.1868 37.8326ZM24.2616 36.4657H24.6521V36.0488L24.236 36.0761L24.2616 36.4657ZM23.6102 36.5085L23.5846 36.1188L23.4073 36.1304L23.2995 36.2718L23.6102 36.5085ZM27.8602 39.6693L27.5057 39.5054C27.2868 39.979 26.9654 40.2423 26.6035 40.3702C26.231 40.5019 25.7848 40.5001 25.3201 40.3803L25.2226 40.7585L25.1252 41.1366C25.6963 41.2838 26.3072 41.3033 26.8638 41.1066C27.4308 40.9062 27.9103 40.4915 28.2147 39.8331L27.8602 39.6693ZM25.2226 40.7585L25.3225 40.3809L19.5881 38.8646L19.4883 39.2421L19.3885 39.6197L25.1228 41.136L25.2226 40.7585ZM19.4883 39.2421L19.8785 39.2588C19.9362 37.9096 20.1801 36.6586 20.7975 35.7526C21.3948 34.876 22.3763 34.2721 24.048 34.2721V33.8816V33.491C22.1531 33.491 20.9135 34.1953 20.152 35.3128C19.4105 36.401 19.1579 37.8303 19.0981 39.2254L19.4883 39.2421ZM24.048 33.8816V34.2721H24.2722V33.8816V33.491H24.048V33.8816ZM24.2722 33.8816H24.6628V32.7283H24.2722H23.8817V33.8816H24.2722ZM24.2722 32.7283V33.1188H28.4048V32.7283V32.3378H24.2722V32.7283ZM28.4048 32.7283H28.0143V33.8816H28.4048H28.7953V32.7283H28.4048ZM28.4048 33.8816V34.2721C29.0515 34.2721 29.4597 34.3182 29.7778 34.4331C30.0825 34.5431 30.3358 34.7279 30.6453 35.0718L30.9356 34.8106L31.2258 34.5493C30.8626 34.1457 30.5072 33.8661 30.0431 33.6985C29.5923 33.5357 29.0715 33.491 28.4048 33.491V33.8816ZM30.9356 34.8106L30.6477 35.0745C31.2042 35.6816 32.1778 37.1845 32.8547 38.3019L33.1887 38.0995L33.5227 37.8972C32.8542 36.7935 31.8415 35.221 31.2234 34.5467L30.9356 34.8106ZM33.1887 38.0995L32.9767 37.7715L29.8373 39.8004L30.0493 40.1284L30.2612 40.4564L33.4007 38.4275L33.1887 38.0995ZM30.0493 40.1284L30.4091 39.9767C30.0315 39.0814 29.1257 37.1924 28.545 36.2502L28.2126 36.4551L27.8801 36.66C28.4314 37.5544 29.3195 39.4029 29.6894 40.2802L30.0493 40.1284ZM28.2126 36.4551H27.822C27.822 38.3467 27.7313 39.0092 27.5047 39.5077L27.8602 39.6693L28.2157 39.8309C28.523 39.1547 28.6031 38.3222 28.6031 36.4551H28.2126ZM23.151 37.5656L23.0535 37.9438L24.0893 38.2107L24.1868 37.8326L24.2843 37.4544L23.2485 37.1875L23.151 37.5656ZM24.1868 37.8326L24.5734 37.8878C24.6307 37.4866 24.6521 36.9203 24.6521 36.4657H24.2616H23.871C23.871 36.9081 23.8497 37.431 23.8002 37.7774L24.1868 37.8326ZM24.2616 36.4657L24.236 36.0761L23.5846 36.1188L23.6102 36.5085L23.6357 36.8981L24.2871 36.8554L24.2616 36.4657ZM23.6102 36.5085L23.2995 36.2718C23.1809 36.4276 23.0796 36.6448 22.9992 36.8409C22.9153 37.0456 22.84 37.2638 22.7805 37.4421L23.151 37.5656L23.5215 37.6891C23.5795 37.515 23.6483 37.3168 23.7219 37.137C23.7991 36.9488 23.8686 36.8136 23.9208 36.7451L23.6102 36.5085ZM24.1975 31.5003L24.5755 31.4023L24.5401 31.2655L24.4253 31.1831L24.1975 31.5003ZM22.254 30.1441L22.4832 29.8279L22.481 29.8263L22.254 30.1441ZM20.1824 27.4852L19.9055 27.2098L19.754 27.3621L19.8016 27.5716L20.1824 27.4852ZM24.2722 23.374L24.5491 23.6494L24.6628 23.5352V23.374H24.2722ZM24.2722 22.7653V22.3748H23.8817V22.7653H24.2722ZM28.4048 22.7653H28.7953V22.3748H28.4048V22.7653ZM27.668 24.901L27.3825 24.6346L27.1063 24.9304L27.4119 25.1958L27.668 24.901ZM28.7251 25.8194L28.469 26.1142L28.47 26.115L28.7251 25.8194ZM27.8602 30.4751L27.5728 30.2107L27.3508 30.452L27.55 30.7124L27.8602 30.4751ZM24.1548 27.7522L23.8651 27.4902L23.5847 27.8003L23.9132 28.059L24.1548 27.7522ZM25.009 28.4249L24.7674 28.7317L25.1061 28.9984L25.3381 28.6351L25.009 28.4249ZM25.4575 27.3357L25.8439 27.3929L25.866 27.2433L25.7816 27.1177L25.4575 27.3357ZM25.0624 26.7484L25.3865 26.5304L25.1077 26.116L24.7728 26.4865L25.0624 26.7484ZM28.4048 32.7283H28.0143C28.0143 32.7966 27.9627 32.9362 27.6137 33.0758C27.2879 33.2061 26.8263 33.2775 26.3439 33.2775V33.668V34.0585C26.8866 34.0585 27.4554 33.9804 27.9038 33.801C28.3289 33.6309 28.7953 33.3007 28.7953 32.7283H28.4048ZM26.3439 33.668V33.2775C25.8588 33.2775 25.3944 33.2015 25.0664 33.0685C24.7101 32.924 24.6628 32.7834 24.6628 32.7283H24.2722H23.8817C23.8817 33.2925 24.3523 33.6218 24.7729 33.7923C25.2217 33.9743 25.7931 34.0585 26.3439 34.0585V33.668ZM24.2722 32.7283H24.6628V32.2584H24.2722H23.8817V32.7283H24.2722ZM24.2722 32.2584H24.6628C24.6628 31.887 24.6631 31.7399 24.5755 31.4023L24.1975 31.5003L23.8195 31.5983C23.8814 31.8372 23.8817 31.9037 23.8817 32.2584H24.2722ZM24.1975 31.5003L24.4253 31.1831C24.0417 30.9075 23.7654 30.7207 23.4816 30.5274C23.1986 30.3348 22.9059 30.1344 22.4832 29.8279L22.254 30.1441L22.0248 30.4603C22.4564 30.7732 22.7564 30.9786 23.042 31.1731C23.3268 31.3669 23.5951 31.5484 23.9697 31.8175L24.1975 31.5003ZM22.254 30.1441L22.481 29.8263C21.6661 29.2443 20.8169 28.5167 20.5632 27.3988L20.1824 27.4852L19.8016 27.5716C20.1245 28.9951 21.1974 29.8693 22.027 30.4619L22.254 30.1441ZM20.1824 27.4852L20.4593 27.7606L24.5491 23.6494L24.2722 23.374L23.9954 23.0986L19.9055 27.2098L20.1824 27.4852ZM24.2722 23.374H24.6628V22.7653H24.2722H23.8817V23.374H24.2722ZM24.2722 22.7653V23.1559H28.4048V22.7653V22.3748H24.2722V22.7653ZM28.4048 22.7653H28.0143V23.2031H28.4048H28.7953V22.7653H28.4048ZM28.4048 23.2031H28.0143C28.0143 23.4877 27.983 23.6967 27.8996 23.8993C27.8145 24.1058 27.6635 24.3335 27.3825 24.6346L27.668 24.901L27.9535 25.1675C28.2704 24.8279 28.4879 24.5216 28.6217 24.1969C28.7571 23.8682 28.7953 23.5486 28.7953 23.2031H28.4048ZM27.668 24.901L27.4119 25.1958L28.469 26.1142L28.7251 25.8194L28.9812 25.5245L27.9241 24.6062L27.668 24.901ZM28.7251 25.8194L28.47 26.115C28.7478 26.3547 28.9344 26.5256 29.0597 26.7108C29.1733 26.8789 29.2423 27.0691 29.2423 27.3571H29.6328H30.0233C30.0233 26.9188 29.9108 26.5752 29.7067 26.2734C29.5143 25.9888 29.2471 25.7539 28.9802 25.5237L28.7251 25.8194ZM29.6328 27.3571H29.2423C29.2423 28.0054 28.7986 28.8783 27.5728 30.2107L27.8602 30.4751L28.1476 30.7396C29.3778 29.4024 30.0233 28.3318 30.0233 27.3571H29.6328ZM27.8602 30.4751L27.55 30.7124C27.9006 31.1709 28.0143 31.7099 28.0143 32.1623H28.4048H28.7953C28.7953 31.5897 28.6526 30.8685 28.1704 30.2379L27.8602 30.4751ZM28.4048 32.1623H28.0143V32.7283H28.4048H28.7953V32.1623H28.4048ZM24.1548 27.7522L23.9132 28.059L24.7674 28.7317L25.009 28.4249L25.2507 28.1181L24.3964 27.4453L24.1548 27.7522ZM25.009 28.4249L25.3381 28.6351C25.6054 28.2169 25.7911 27.7487 25.8439 27.3929L25.4575 27.3357L25.0712 27.2785C25.0385 27.4993 24.9039 27.8641 24.68 28.2146L25.009 28.4249ZM25.4575 27.3357L25.7816 27.1177L25.3865 26.5304L25.0624 26.7484L24.7384 26.9664L25.1335 27.5537L25.4575 27.3357ZM25.0624 26.7484L24.7728 26.4865L23.8651 27.4902L24.1548 27.7522L24.4444 28.0141L25.3521 27.0103L25.0624 26.7484ZM24.2082 20.6724L24.5911 20.5958L24.5173 20.2266L24.1456 20.2869L24.2082 20.6724ZM20.5241 21.2704L20.1508 21.385L20.2507 21.7104L20.5867 21.6558L20.5241 21.2704ZM19.4456 17.7571V17.3666H18.9172L19.0723 17.8718L19.4456 17.7571ZM17.3953 19.9783L17.134 20.2684L17.4253 20.5308L17.6865 20.2385L17.3953 19.9783ZM15.8897 18.6221L15.5995 18.3607L15.3381 18.6509L15.6283 18.9123L15.8897 18.6221ZM17.2458 17.1164L17.5082 16.8272L17.218 16.5639L16.9557 16.8551L17.2458 17.1164ZM18.7408 18.4726L19.032 18.7328L19.2903 18.4438L19.0032 18.1834L18.7408 18.4726ZM18.9757 21.4305L19.2659 21.6919L19.5283 21.4006L19.236 21.1393L18.9757 21.4305ZM17.6196 22.9362L17.3572 23.2254L17.6475 23.4887L17.9098 23.1975L17.6196 22.9362ZM16.1246 21.58L15.8343 21.3188L15.5741 21.6079L15.8622 21.8693L16.1246 21.58ZM17.4701 20.085L17.7303 19.7938L17.4401 19.5345L17.1798 19.8238L17.4701 20.085ZM26.3439 23.6944V23.3038C25.8588 23.3038 25.3944 23.2279 25.0664 23.0949C24.7101 22.9504 24.6628 22.8098 24.6628 22.7547H24.2722H23.8817C23.8817 23.3188 24.3523 23.6481 24.7729 23.8187C25.2217 24.0007 25.7931 24.0849 26.3439 24.0849V23.6944ZM24.2722 22.7547H24.6628V21.9751H24.2722H23.8817V22.7547H24.2722ZM24.2722 21.9751H24.6628C24.6628 21.5451 24.6647 20.9635 24.5911 20.5958L24.2082 20.6724L23.8252 20.7489C23.8798 21.0219 23.8817 21.5082 23.8817 21.9751H24.2722ZM24.2082 20.6724L24.1456 20.2869L20.4615 20.8849L20.5241 21.2704L20.5867 21.6558L24.2707 21.0578L24.2082 20.6724ZM20.5241 21.2704L20.8974 21.1557L19.8189 17.6425L19.4456 17.7571L19.0723 17.8718L20.1508 21.385L20.5241 21.2704ZM19.4456 17.7571V18.1477H25.1799V17.7571V17.3666H19.4456V17.7571ZM25.1799 17.7571V18.1477C26.2383 18.1477 26.9141 18.4918 27.3426 19.0749C27.7884 19.6816 28.0143 20.6101 28.0143 21.8683H28.4048H28.7953C28.7953 20.5424 28.562 19.4153 27.972 18.6124C27.3647 17.786 26.4281 17.3666 25.1799 17.3666V17.7571ZM28.4048 21.8683H28.0143V22.7547H28.4048H28.7953V21.8683H28.4048ZM28.4048 22.7547H28.0143C28.0143 22.8165 27.9646 22.9566 27.6126 23.0986C27.2864 23.2302 26.8247 23.3038 26.3439 23.3038V23.6944V24.0849C26.8881 24.0849 27.4569 24.0037 27.9049 23.8229C28.327 23.6526 28.7953 23.3228 28.7953 22.7547H28.4048ZM17.3953 19.9783L17.6567 19.6881L16.151 18.3319L15.8897 18.6221L15.6283 18.9123L17.134 20.2684L17.3953 19.9783ZM15.8897 18.6221L16.1798 18.8835L17.536 17.3778L17.2458 17.1164L16.9557 16.8551L15.5995 18.3607L15.8897 18.6221ZM17.2458 17.1164L16.9834 17.4057L18.4784 18.7618L18.7408 18.4726L19.0032 18.1834L17.5082 16.8272L17.2458 17.1164ZM18.7408 18.4726L18.4496 18.2124L17.1041 19.718L17.3953 19.9783L17.6865 20.2385L19.032 18.7328L18.7408 18.4726ZM18.9757 21.4305L18.6856 21.1692L17.3294 22.6748L17.6196 22.9362L17.9098 23.1975L19.2659 21.6919L18.9757 21.4305ZM17.6196 22.9362L17.882 22.6469L16.387 21.2908L16.1246 21.58L15.8622 21.8693L17.3572 23.2254L17.6196 22.9362ZM16.1246 21.58L16.4149 21.8413L17.7604 20.3463L17.4701 20.085L17.1798 19.8238L15.8343 21.3188L16.1246 21.58ZM17.4701 20.085L17.2099 20.3762L18.7155 21.7217L18.9757 21.4305L19.236 21.1393L17.7303 19.7938L17.4701 20.085Z" fill="black" mask="url(#path-2-outside-1_0_35)"/>
</g>
<defs>
<filter id="filter0_d_0_35" x="14.7222" y="16.564" width="21.0999" height="42.6895" filterUnits="userSpaceOnUse" color-interpolation-filters="sRGB">
<feFlood flood-opacity="0" result="BackgroundImageFix"/>
<feColorMatrix in="SourceAlpha" type="matrix" values="0 0 0 0 0 0 0 0 0 0 0 0 0 0 0 0 0 0 127 0" result="hardAlpha"/>
<feOffset dx="0.78105" dy="0.78105"/>
<feComposite in2="hardAlpha" operator="out"/>
<feColorMatrix type="matrix" values="0 0 0 0 0 0 0 0 0 0 0 0 0 0 0 0 0 0 1 0"/>
<feBlend mode="normal" in2="BackgroundImageFix" result="effect1_dropShadow_0_35"/>
<feBlend mode="normal" in="SourceGraphic" in2="effect1_dropShadow_0_35" result="shape"/>
</filter>
</defs>
</svg>
