<svg width="200" height="111" viewBox="0 0 200 111" fill="none" xmlns="http://www.w3.org/2000/svg">
<path d="M30.2 -2.93255e-05C36.6 9.06664 42.7333 18.3333 48.6 27.8C54.6 37.2666 60.4 46.9333 66 56.8C54.9333 63.4666 44.2 69.2 33.8 74C23.5333 78.9333 12.7333 83.7333 1.40001 88.4L1.35899e-05 84.6C10.5333 80.3333 20.6667 75.9333 30.4 71.4C40.1333 67 50.2 61.6666 60.6 55.4C55.2667 46.2 49.8 37.2 44.2 28.4C38.7333 19.6 33 10.9333 27 2.39997L30.2 -2.93255e-05ZM146.286 68C141.486 77.8666 134.286 86.3333 124.686 93.4C115.219 100.6 105.219 106.267 94.686 110.4L93.286 106.6C102.753 103 111.819 98.0666 120.486 91.8C129.153 85.5333 136.219 77.8 141.686 68.6C135.286 68.3333 129.153 68 123.286 67.6C117.419 67.2 111.686 66.6666 106.086 66C100.486 65.2 94.886 64.3333 89.286 63.4C83.8193 62.3333 78.2193 61 72.486 59.4C73.1526 53.2666 74.4193 47.4666 76.286 42C78.1526 36.5333 80.686 31.7333 83.886 27.6C87.2193 23.3333 91.1526 20.0666 95.686 17.8C100.219 15.4 105.353 14.2 111.086 14.2C111.486 14.2 111.819 14.2 112.086 14.2C119.553 14.3333 125.753 16.2 130.686 19.8C135.753 23.4 139.619 27.8666 142.286 33.2C145.086 38.4 146.753 43.3333 147.286 48C147.953 52.6666 148.286 55.9333 148.286 57.8C148.286 61.9333 147.619 65.3333 146.286 68ZM76.886 56.4C82.3526 57.7333 87.6193 58.9333 92.686 60C97.886 60.9333 103.086 61.7333 108.286 62.4C113.619 62.9333 119.153 63.4 124.886 63.8C130.619 64.0666 136.819 64.3333 143.486 64.6C143.886 62.2 144.086 59.7333 144.086 57.2C144.086 54.6666 143.753 51.4 143.086 47.4C142.553 43.2666 141.019 38.9333 138.486 34.4C136.086 29.8666 132.753 26.0666 128.486 23C124.219 19.9333 118.886 18.3333 112.486 18.2C112.219 18.2 111.886 18.2 111.486 18.2C106.153 18.2 101.419 19.3333 97.286 21.6C93.286 23.7333 89.886 26.6 87.086 30.2C84.286 33.8 82.0193 37.9333 80.2859 42.6C78.686 47.1333 77.5526 51.7333 76.886 56.4ZM128.669 64.6C138.669 64.2 149.469 62.9333 161.069 60.8C172.802 58.6666 185.135 55.6666 198.069 51.8L199.069 55.4C186.269 59.6666 173.735 62.8666 161.469 65C149.202 67.1333 138.269 68.3333 128.669 68.6V64.6ZM168.469 107.2C167.002 107.2 165.802 106.733 164.869 105.8C163.935 104.867 163.469 103.667 163.469 102.2C163.469 100.733 163.935 99.5333 164.869 98.6C165.802 97.6666 167.002 97.2 168.469 97.2C169.935 97.2 171.135 97.6666 172.069 98.6C173.002 99.5333 173.469 100.733 173.469 102.2C173.469 103.667 173.002 104.867 172.069 105.8C171.135 106.733 169.935 107.2 168.469 107.2Z" fill="#600C30"/>
</svg>
