<svg width="50" height="50" viewBox="0 0 50 50" fill="none" xmlns="http://www.w3.org/2000/svg">
<g clip-path="url(#clip0_30_167)">
<path d="M24.5703 1.19141C24.2383 7.16797 21.9531 12.2949 17.6074 16.7969C12.9004 21.6895 7.56836 24.209 1.20117 24.5703L0 24.6387V24.9902V25.3516L1.5918 25.4688C4.94141 25.7031 7.40234 26.3574 10.3027 27.7832C13.0176 29.1113 14.8145 30.4199 17.1973 32.8027C21.8066 37.4121 24.0918 42.2754 24.5312 48.4082L24.6484 50H25.0098H25.3613L25.4297 48.7988C25.625 45.2734 26.4062 42.3535 27.9688 39.2871C29.1797 36.9141 30.5957 35.0098 32.8027 32.8027C35.1855 30.4297 36.9824 29.1113 39.6973 27.7832C42.5977 26.3574 45.0586 25.7031 48.418 25.4688L50 25.3516V25V24.6484L48.418 24.5312C45.0586 24.2969 42.5977 23.6426 39.6973 22.2168C36.9824 20.8887 35.1855 19.5703 32.8027 17.1973C30.5957 14.9902 29.1797 13.0859 27.9688 10.7129C26.4062 7.64648 25.625 4.72656 25.4297 1.19141L25.3613 0H25H24.6387L24.5703 1.19141Z" fill="#600C30"/>
</g>
<defs>
<clipPath id="clip0_30_167">
<rect width="50" height="50" fill="white"/>
</clipPath>
</defs>
</svg>
