<svg width="228" height="152" viewBox="0 0 228 152" fill="none" xmlns="http://www.w3.org/2000/svg">
<path d="M73.2979 148.589L119.782 128.293L170.849 136.805L163.648 117.163L210.132 123.056L183.944 102.105L224.536 73.2979L180.67 60.2037L190.491 22.8853L149.899 38.5983L116.509 2.58936L96.8674 34.6701L62.8225 11.7553L58.2396 43.836L2.58936 38.5983L28.123 73.2979L2.58936 85.0826L35.9795 102.105L23.54 128.293H62.8225L73.2979 148.589Z" stroke="#3C0E18" stroke-width="5.17874" stroke-linejoin="round"/>
<path d="M40.4179 85.2659L38.0888 56.717L49.1343 53.3645V85.2659H40.4179ZM45.4995 97.4759L39.8532 92.359L44.9349 86.7127L50.5811 91.7944L45.4995 97.4759ZM55.8745 117.026V89.5711C55.8745 86.4657 58.2036 83.9602 61.1679 83.9602H64.5909V83.2897C64.5909 72.4912 71.5076 68.5388 83.4 68.5388L88.9051 88.9712C89.011 89.3947 89.0816 89.8887 89.0816 90.3828C89.0816 93.4177 86.7878 95.3938 84.2823 96.1349C81.2827 97.0171 77.9655 97.1583 73.2368 97.1583C70.5901 97.1583 67.6258 97.1583 64.9791 97.0877L67.4846 113.462L55.8745 117.026ZM73.8367 84.066C74.7895 84.066 76.8363 84.0307 77.7185 83.9249L76.7657 80.4665C75.954 80.7489 74.366 81.3488 73.9778 81.6311L73.8367 84.066ZM98.8567 95.041C95.116 93.3118 94.3749 89.7476 95.2572 86.3245L100.268 67.3743C109.338 67.7625 117.983 70.6562 117.983 82.4427V83.1838H121.795V96.8407H117.983C117.983 101.181 117.383 102.981 114.913 105.204C112.796 107.145 107.714 110.427 104.044 112.65L97.3392 102.275C100.268 101.04 106.444 98.0758 109.479 96.2055C103.268 96.2055 100.798 95.9232 98.8567 95.041ZM105.809 79.4784L104.926 82.9015C106.162 83.0779 107.961 83.1485 109.443 83.1485L109.302 80.9959C108.561 80.4313 106.973 79.8666 105.809 79.4784ZM121.795 96.8407C119.677 96.8407 118.689 93.4177 118.689 90.0299C118.689 86.6069 119.748 83.1838 121.795 83.1838H123.347C124.547 83.1838 124.9 83.1838 125.853 82.9368C127.653 80.4313 128.288 79.3373 130.335 76.5142C132.275 73.7969 134.922 70.6209 139.122 69.6681L152.708 83.1838H154.719V96.8407H153.273C151.19 96.8407 149.779 96.3819 147.662 94.4057L144.627 97.8994C143.074 99.6991 141.945 100.899 139.545 100.899C136.863 100.899 133.652 99.0992 129.241 95.041C127.441 96.4172 125.359 96.8407 123.665 96.8407H121.795ZM138.239 82.7956L136.016 85.6188C137.287 86.4304 138.663 86.9597 139.616 87.1009L141.557 85.7952L138.239 82.7956ZM151.649 90.0299C151.649 86.6069 152.708 83.1838 154.755 83.1838H157.331C158.813 83.1838 160.577 83.1838 161.636 82.9721L159.66 70.7973L171.27 67.2331V86.1834C171.27 93.8058 166.224 96.8407 157.684 96.8407H154.755C152.673 96.8407 151.649 93.4177 151.649 90.0299ZM163.93 60.4576L168.412 55.4818L173.387 59.9636L168.906 64.904L163.93 60.4576ZM159.131 65.6804L154.155 61.1987L158.636 56.2582L163.577 60.7046L159.131 65.6804Z" fill="#3C0E18"/>
</svg>
